<?xml version="1.0" encoding="utf-8"?>
<!-- Generator: Adobe Illustrator 17.1.0, SVG Export Plug-In . SVG Version: 6.00 Build 0)  -->
<!DOCTYPE svg PUBLIC "-//W3C//DTD SVG 1.1//EN" "http://www.w3.org/Graphics/SVG/1.1/DTD/svg11.dtd">
<svg version="1.1" id="Layer_1" xmlns="http://www.w3.org/2000/svg" xmlns:xlink="http://www.w3.org/1999/xlink" x="0px" y="0px"
	 viewBox="0 0 149 49.5" enable-background="new 0 0 149 49.5" xml:space="preserve">
<rect x="-12.7" y="-13" fill="#FFFFFF" width="174.5" height="75.5"/>
<g>
	<g>
		<g>
			<rect x="-7.1" y="-4.5" fill="none" width="163.2" height="58.5"/>
			<rect x="-12.7" y="-13" fill="none" width="174.5" height="75.5"/>
			<g>
				<line fill="none" x1="-12.8" y1="51.1" x2="161.8" y2="51.1"/>
				<line fill="none" x1="-12.8" y1="54" x2="161.8" y2="54"/>
				<line fill="none" x1="-12.8" y1="56.8" x2="161.8" y2="56.8"/>
				<line fill="none" x1="-12.8" y1="59.6" x2="161.8" y2="59.6"/>
				<line fill="none" x1="-12.8" y1="62.5" x2="161.8" y2="62.5"/>
				<line fill="none" x1="161.8" y1="48.3" x2="-12.8" y2="48.3"/>
			</g>
			<g>
				<line fill="none" x1="-12.7" y1="-13" x2="161.8" y2="-13"/>
				<line fill="none" x1="-12.7" y1="-10.2" x2="161.8" y2="-10.2"/>
				<line fill="none" x1="-12.7" y1="-7.4" x2="161.8" y2="-7.4"/>
				<line fill="none" x1="-12.7" y1="-4.5" x2="161.8" y2="-4.5"/>
				<line fill="none" x1="-12.7" y1="-1.7" x2="161.8" y2="-1.7"/>
				<line fill="none" x1="-12.7" y1="1.1" x2="161.8" y2="1.1"/>
				<line fill="none" x1="-12.7" y1="4" x2="161.8" y2="4"/>
				<line fill="none" x1="-12.7" y1="6.8" x2="161.8" y2="6.8"/>
			</g>
		</g>
		<g>
			<path fill="#D2D3D4" d="M132.3,38c0.5-0.7,1.1-1.5,1.8-2.1c0.7-0.7,1.3-1.3,2.1-1.8l-0.8,3.1L132.3,38z"/>
			<path fill="#595A5C" d="M137.7,39.3c-0.9-0.1-1.8-0.2-2.7-0.5c-0.9-0.2-1.8-0.5-2.6-0.9l3.1-0.9L137.7,39.3z"/>
			<path fill="#939598" d="M136.2,34c0.4,0.8,0.7,1.7,1,2.6c0.3,0.9,0.4,1.8,0.6,2.7l-2.3-2.2L136.2,34z"/>
			<path fill="#939598" d="M131.3,44.3c-0.5-0.7-1-1.5-1.5-2.3c-0.4-0.8-0.8-1.7-1.1-2.5l2.7,1.7L131.3,44.3z"/>
			<path fill="#595A5C" d="M134.2,39.6c-0.4,0.8-0.8,1.6-1.3,2.4c-0.5,0.8-1,1.5-1.6,2.2l0.1-3.2L134.2,39.6z"/>
			<path fill="#D2D3D4" d="M128.7,39.4c0.9-0.1,1.8-0.1,2.8-0.1c0.9,0,1.9,0.1,2.7,0.3l-2.8,1.5L128.7,39.4z"/>
			<path fill="#595A5C" d="M137,47.3c-0.9,0.3-1.8,0.5-2.7,0.7c-0.9,0.2-1.8,0.3-2.7,0.3l2.4-2L137,47.3z"/>
			<path fill="#939598" d="M133.4,43.1c0.7,0.6,1.3,1.3,1.9,2c0.6,0.7,1.1,1.5,1.6,2.2l-3-1.1L133.4,43.1z"/>
			<path fill="#D2D3D4" d="M131.5,48.2c0.2-0.9,0.4-1.8,0.7-2.6c0.3-0.9,0.7-1.7,1.1-2.5l0.5,3.1L131.5,48.2z"/>
			<path fill="#939598" d="M141.6,42.8c0,0.9-0.1,1.8-0.2,2.7c-0.1,0.9-0.3,1.8-0.6,2.7l-1.2-2.9L141.6,42.8z"/>
			<path fill="#D2D3D4" d="M136.5,44.9c0.8-0.5,1.6-0.9,2.5-1.2c0.9-0.3,1.7-0.6,2.6-0.8l-2,2.5L136.5,44.9z"/>
			<path fill="#595A5C" d="M140.8,48.2c-0.8-0.5-1.5-1-2.3-1.5c-0.7-0.6-1.4-1.2-2.1-1.9l3.2,0.4L140.8,48.2z"/>
			<path fill="#939598" d="M138.7,37c0.9,0.3,1.7,0.6,2.6,1c0.8,0.4,1.6,0.9,2.4,1.4l-3.2,0.2L138.7,37z"/>
			<path fill="#D2D3D4" d="M139.1,42.5c-0.2-0.9-0.3-1.8-0.4-2.7c-0.1-0.9-0.1-1.8,0-2.8l1.8,2.6L139.1,42.5z"/>
			<path fill="#595A5C" d="M143.6,39.4c-0.7,0.6-1.4,1.2-2.2,1.7c-0.8,0.5-1.6,1-2.4,1.4l1.4-2.9L143.6,39.4z"/>
			<path fill="#231F20" d="M4.1,39.4H3.6l-2.4,5.3h0.6c0,0,0.7-1.5,0.8-1.6h2.7c0.1,0.1,0.7,1.6,0.7,1.6h0.6L4.1,39.4z M2.7,42.5
				c0.1-0.3,0.9-2.1,1.1-2.4c0.2,0.4,1,2.2,1.1,2.4H2.7z"/>
			<polygon fill="#231F20" points="89.4,39.4 90.2,39.4 90.2,44.7 89.7,44.7 89.7,40.1 89.7,40.1 87.3,44.7 86.8,44.7 84.4,40.1 
				84.4,40.1 84.4,44.7 83.9,44.7 83.9,39.4 84.7,39.4 87.1,44 			"/>
			<path fill="#231F20" d="M9.6,43c0,0.5,0.2,0.9,0.5,1.2c0.4,0.4,1.1,0.6,2.1,0.6c0.5,0,2.3-0.1,2.3-1.6c0-1.3-1.2-1.4-2.2-1.5h0
				c-1.1-0.1-1.9-0.2-1.9-1c0-0.4,0.2-0.6,0.6-0.8c0.4-0.2,0.8-0.2,1.3-0.2c0.3,0,1,0.1,1.3,0.4c0.2,0.2,0.2,0.4,0.2,0.7l0.5,0
				c0-0.4-0.1-0.8-0.4-1c-0.5-0.4-1.2-0.5-1.8-0.5c-0.8,0-1.5,0.1-2,0.6c-0.2,0.2-0.4,0.5-0.4,0.9c0,1.3,1.3,1.4,2.3,1.5
				c0.5,0,0.9,0.1,1.3,0.2c0.4,0.2,0.5,0.4,0.5,0.8c0,0.2-0.1,0.4-0.3,0.6c-0.4,0.4-1.2,0.4-1.5,0.4c-0.7,0-1.3-0.2-1.6-0.5
				c-0.2-0.2-0.3-0.5-0.3-0.9H9.6z"/>
			<polygon fill="#231F20" points="15.3,39.4 15.3,39.9 17.3,39.9 17.3,44.7 17.9,44.7 17.9,39.9 20,39.9 20,39.4 			"/>
			<path fill="#231F20" d="M23.1,39.4h-0.5l-2.4,5.3h0.6c0,0,0.7-1.5,0.8-1.6h2.7c0.1,0.1,0.7,1.6,0.7,1.6h0.6L23.1,39.4z
				 M21.7,42.5c0.1-0.3,0.9-2.1,1.1-2.4c0.2,0.4,1,2.2,1.1,2.4H21.7z"/>
			<path fill="#231F20" d="M31.7,44.5c-0.1-0.2-0.1-0.5-0.1-1.4c0-0.5-0.3-0.9-0.8-1.1c0.6-0.3,0.8-0.8,0.8-1.3c0-1-0.6-1.5-1.8-1.5
				h-2.7v5.3h0.6v-2.3h2.2c1,0,1.2,0.2,1.2,1c0,0.9,0.1,1.2,0.2,1.3l0,0h0.6L31.7,44.5z M29.7,41.9h-2.1v-2h2.2
				c0.8,0,1.3,0.3,1.3,0.9C31.1,41.5,30.6,41.9,29.7,41.9"/>
			<path fill="#231F20" d="M38.5,39.4h-0.5l-2.4,5.3h0.6c0,0,0.7-1.5,0.7-1.6h2.7c0.1,0.1,0.8,1.6,0.8,1.6h0.6L38.5,39.4z
				 M37.1,42.5c0.1-0.3,0.9-2.1,1.1-2.4c0.2,0.4,1,2.2,1.1,2.4H37.1z"/>
			<path fill="#231F20" d="M57.9,39.4h-0.5l-2.5,5.3h0.6c0,0,0.7-1.5,0.8-1.6h2.7c0.1,0.1,0.8,1.6,0.8,1.6h0.6L57.9,39.4z
				 M56.5,42.5c0.1-0.3,1-2.1,1.1-2.4c0.2,0.4,1,2.2,1.1,2.4H56.5z"/>
			<polygon fill="#231F20" points="42.6,39.4 42.6,44.7 46.5,44.7 46.5,44.2 43.2,44.2 43.2,39.4 			"/>
			<polygon fill="#231F20" points="47.7,39.4 47.7,44.7 51.5,44.7 51.5,44.2 48.2,44.2 48.2,39.4 			"/>
			<rect x="52.6" y="39.4" fill="#231F20" width="0.5" height="5.3"/>
			<path fill="#231F20" d="M66.2,39.4v4.4c-0.3-0.4-3.9-4.4-3.9-4.4h-0.6v5.3h0.5v-4.5c0.3,0.4,3.9,4.5,3.9,4.5h0.6v-5.3H66.2z"/>
			<polygon fill="#231F20" points="75.8,39.4 75.8,44.7 80.1,44.7 80.1,44.2 76.4,44.2 76.4,42.2 79.9,42.2 79.9,41.7 76.4,41.7 
				76.4,39.9 80.1,39.9 80.1,39.4 			"/>
			<polygon fill="#231F20" points="91.9,39.4 91.9,44.7 96.3,44.7 96.3,44.2 92.5,44.2 92.5,42.2 96.1,42.2 96.1,41.7 92.5,41.7 
				92.5,39.9 96.2,39.9 96.2,39.4 			"/>
			<polygon fill="#231F20" points="103.5,39.4 104.3,39.4 104.3,44.7 103.7,44.7 103.7,40.1 103.7,40.1 101.3,44.7 100.8,44.7 
				98.5,40.1 98.5,40.1 98.5,44.7 97.9,44.7 97.9,39.4 98.7,39.4 101.1,44 			"/>
			<path fill="#231F20" d="M106.6,39.9h2.4c0.6,0,1,0.2,1,0.9c0,0.7-0.5,1-1.2,1h-2.2V39.9z M106,44.7h3c0.8,0,1.8-0.4,1.8-1.5
				c0-0.7-0.4-1.2-1.1-1.3v0c0.6-0.1,0.9-0.6,0.9-1.2c0-0.8-0.4-1.3-1.5-1.3h-3V44.7z M106.6,42.2h2.5c0.6,0,1.1,0.2,1.1,1
				c0,0.7-0.5,1-1.3,1h-2.3V42.2z"/>
			<polygon fill="#231F20" points="112.5,39.4 112.5,44.7 116.8,44.7 116.8,44.2 113,44.2 113,42.2 116.6,42.2 116.6,41.7 113,41.7 
				113,39.9 116.7,39.9 116.7,39.4 			"/>
			<path fill="#231F20" d="M123.1,44.5c-0.1-0.2-0.1-0.5-0.1-1.4c0-0.5-0.3-0.9-0.8-1.1c0.6-0.3,0.8-0.8,0.8-1.3
				c0-1-0.6-1.5-1.8-1.5h-2.7v5.3h0.6v-2.3h2.2c1,0,1.2,0.2,1.2,1c0,0.9,0.1,1.2,0.2,1.3l0,0h0.6L123.1,44.5z M121.1,41.9H119v-2
				h2.2c0.8,0,1.2,0.3,1.2,0.9C122.4,41.5,122,41.9,121.1,41.9"/>
			<path fill="#231F20" d="M68.5,42.1c0,1.7,1.2,2.8,2.9,2.8c1.6,0,2.6-1.1,2.7-2.1l0-0.1h-0.6l0,0.1c-0.2,1-1,1.7-2.1,1.7
				c-1.7,0-2.3-1.2-2.3-2.2c0-1.3,1-2.3,2.3-2.3c1.1,0,1.8,0.5,2,1.3l0,0.1H74l0-0.1c-0.3-1.2-1.2-1.8-2.6-1.8
				C69.4,39.3,68.5,40.7,68.5,42.1"/>
			<polygon fill="#231F20" points="145.4,39.3 144.9,39.3 144.9,39.1 146.1,39.1 146.1,39.3 145.6,39.3 145.6,40.4 145.4,40.4 			
				"/>
			<polygon fill="#231F20" points="147.7,39.1 147.9,39.1 147.9,40.4 147.7,40.4 147.7,39.3 147.7,39.3 147.2,40.4 147,40.4 
				146.5,39.4 146.5,39.4 146.5,40.4 146.3,40.4 146.3,39.1 146.6,39.1 147.1,40.2 			"/>
			<rect x="1.1" y="29.9" fill="#231F20" width="146.8" height="0.2"/>
			<path fill="#005DAA" d="M52.7,6.8h3.1c0.5,1.2,5,10.8,5,10.8h-2.8l-1.2-2.5h-5.1l-1.1,2.5h-2.8L52.7,6.8z M55.9,13.1l-1.7-3.7
				l-1.7,3.7H55.9z"/>
			<path fill="#005DAA" d="M89.3,9.2c-1.8,0-2.7,0.9-2.7,0.9l-0.1-0.8H84c0.1,0.3,0.3,0.8,0.3,1.3v6.9h2.4v-4.8
				c0-1.3,0.8-1.9,2.6-1.9c1,0,1.6,0.3,1.6,1.9v4.8h2.4v-4.8C93.2,10.4,92.5,9.2,89.3,9.2"/>
			<path fill="#005DAA" d="M100,9.2c-4.1,0-5,1.9-5,4.2c0,2.4,0.9,4.3,5.2,4.3c1.6,0,3-0.3,3.4-0.4c0.1-0.4,0.2-1.3,0.2-1.6
				c-0.2,0-2.1,0.4-3.6,0.4c-2,0-2.5-0.8-2.7-1.8h6.9v-0.8C104.4,10.5,102.8,9.2,100,9.2 M97.5,12.7c0.1-1,0.6-1.8,2.5-1.8
				c1.4,0,1.9,0.9,2,1.8H97.5z"/>
			<path fill="#005DAA" d="M19.3,9.2c-3,0-5,1.3-5,4.3c0,3,2,4.3,5,4.3c3,0,5-1.3,5-4.3C24.3,10.6,22.3,9.2,19.3,9.2 M19.3,16.1
				c-2,0-2.6-1-2.6-2.6c0-1.6,0.6-2.6,2.6-2.6c2,0,2.6,1,2.6,2.6C21.9,15.1,21.3,16.1,19.3,16.1"/>
			<path fill="#005DAA" d="M45.9,11.9c0-1.7-1.8-2.6-4.4-2.6c-1.3,0-3,0.5-3.6,0.7c-0.1,0.3-0.2,1.4-0.3,1.7
				c0.5-0.1,2.6-0.7,3.8-0.7c1.3,0,2,0.4,2,1.1v0.7c0,0-1.6-0.2-2.2-0.2c-2.6,0-4.2,0.9-4.2,2.6c0,2.2,2.4,2.6,3.6,2.6
				c1.6,0,2.5-0.4,2.9-0.8l0.1,0.6h2.4c0-0.1-0.2-0.7-0.2-1.5V11.9z M43.5,14.5c0,1.5-1.5,1.7-2.8,1.7c-0.5,0-1.2-0.1-1.2-1
				c0-0.6,0.8-1,1.8-1h2.2V14.5z"/>
			<path fill="#005DAA" d="M7.6,6.5c2.8,0,4.5,0.9,5.5,2.3l-2.5,1c-0.5-0.8-1.4-1.3-3-1.3H7.6c-1.5,0-2.4,0.5-2.9,1.2
				c-0.5,0.6-0.7,1.5-0.7,2.4v0.2h0c0,0.9,0.3,1.8,0.7,2.4c0.5,0.7,1.4,1.2,2.9,1.2h0.1c1.5,0,2.4-0.5,3-1.2l2.5,1
				c-1,1.4-2.7,2.2-5.5,2.2h0c-2.5,0-4.1-0.7-5.1-1.8c-0.9-1-1.4-2.3-1.4-3.8v-0.1c0-1.4,0.5-2.8,1.4-3.8C3.5,7.2,5.2,6.5,7.6,6.5"
				/>
			<path fill="#005DAA" d="M77.1,16.3V6.8h-2.4v9.5c0,0.6,0.2,1.2,0.3,1.3h2.4C77.3,17.4,77.1,16.9,77.1,16.3"/>
			<path fill="#005DAA" d="M69.1,12.8c0-1.3,0.9-1.9,2.6-1.9c0.3,0,1.4,0.1,1.8,0.2c0-0.2-0.2-1.2-0.3-1.6c-0.3-0.1-1.1-0.2-1.6-0.2
				c-1.4,0-2.2,0.5-2.6,0.9l-0.2-0.7h-2.4c0,0.2,0.2,0.7,0.3,1.3v6.9h2.4V12.8z"/>
			<path fill="#005DAA" d="M31,9.2c-1.5,0-2.6,0.9-2.6,0.9s-0.1-0.5-0.2-0.7h-2.4c0.1,0.3,0.3,0.9,0.3,1.5v9.3h2.4V17
				c0.5,0.4,1.4,0.8,2.6,0.8c4,0,4.6-1.9,4.6-4.3C35.6,11.2,35,9.2,31,9.2 M31,16.1c-2,0-2.6-1.2-2.6-2.6c0-1.6,0.6-2.6,2.6-2.6
				c1.8,0,2.2,1.2,2.2,2.6C33.2,15,32.9,16.1,31,16.1"/>
			<path fill="#005DAA" d="M113,9.7v1.9c-0.5-0.3-1-0.4-1.5-0.6c-0.5-0.1-1-0.2-1.5-0.2c-0.6,0-1,0.1-1.3,0.2
				c-0.3,0.1-0.4,0.3-0.4,0.6c0,0.4,0.6,0.7,1.9,0.9l0.1,0l0.7,0.1c0.9,0.2,1.6,0.5,2,0.9c0.4,0.4,0.6,1,0.6,1.7
				c0,0.8-0.3,1.5-1,1.9c-0.7,0.4-1.6,0.6-3,0.6c-0.6,0-1.2,0-1.8-0.1c-0.6-0.1-1.2-0.2-1.9-0.4v-1.9c0.6,0.3,1.1,0.5,1.7,0.6
				c0.6,0.1,1.1,0.2,1.7,0.2c0.6,0,1-0.1,1.4-0.2c0.3-0.1,0.5-0.4,0.5-0.6c0-0.3-0.1-0.5-0.3-0.6c-0.2-0.1-0.7-0.3-1.6-0.5l-0.7-0.1
				c-1-0.2-1.7-0.5-2.1-0.9c-0.4-0.4-0.7-0.9-0.7-1.6c0-0.8,0.3-1.4,1-1.8c0.7-0.4,1.6-0.7,2.9-0.7c0.5,0,1.1,0,1.7,0.1
				C112,9.4,112.5,9.5,113,9.7"/>
			<path fill="#005DAA" d="M81.9,16.3V9.4h-2.4v6.9c0,0.6,0.2,1.2,0.3,1.3h2.4C82.1,17.4,81.9,16.9,81.9,16.3 M80.7,8.7
				c0.5,0,0.9-0.1,1.1-0.2c0.2-0.1,0.3-0.4,0.3-0.8c0-0.4-0.1-0.6-0.3-0.7c-0.2-0.1-0.5-0.2-1.1-0.2c-0.5,0-0.9,0.1-1.1,0.2
				c-0.2,0.1-0.3,0.4-0.3,0.8c0,0.4,0.1,0.6,0.3,0.7C79.8,8.7,80.2,8.7,80.7,8.7"/>
			<path fill="#005DAA" d="M64.4,16.3V9.4H62v6.9c0,0.6,0.2,1.2,0.3,1.3h2.4C64.6,17.4,64.4,16.9,64.4,16.3 M63.2,8.7
				c0.5,0,0.9-0.1,1.1-0.2c0.2-0.1,0.3-0.4,0.3-0.8c0-0.4-0.1-0.6-0.3-0.7c-0.2-0.1-0.5-0.2-1.1-0.2c-0.5,0-0.9,0.1-1.1,0.2
				c-0.2,0.1-0.3,0.4-0.3,0.8c0,0.4,0.1,0.6,0.3,0.7C62.3,8.7,62.6,8.7,63.2,8.7"/>
			<path fill="#005DAA" d="M147.2,24c0-0.3-0.3-0.4-0.5-0.4h-0.6v1.5h0.2v-0.7h0.2l0.5,0.7h0.3l-0.5-0.7
				C147,24.5,147.2,24.3,147.2,24 M146.5,24.2h-0.2v-0.4h0.4c0.2,0,0.4,0,0.4,0.2C147,24.3,146.7,24.2,146.5,24.2"/>
			<path fill="#005DAA" d="M146.6,23.1c-0.8,0-1.4,0.6-1.4,1.4c0,0.8,0.6,1.4,1.4,1.4c0.8,0,1.4-0.6,1.4-1.4
				C147.9,23.6,147.3,23.1,146.6,23.1 M146.6,25.6c-0.6,0-1.2-0.5-1.2-1.2c0-0.7,0.5-1.2,1.2-1.2c0.6,0,1.2,0.5,1.2,1.2
				C147.7,25.1,147.2,25.6,146.6,25.6"/>
			<path fill="#005DAA" d="M117.8,11.9v0.8c2.6-1,5.3-1.7,7.8-2C123.3,10.6,120.5,11,117.8,11.9"/>
			<path fill="#005DAA" d="M117.8,7.8c0.7,0,1.5,0.2,2.4,0.3l-1.5,0.2c-0.3,0-0.6,0-0.9,0.1v0.3c1.1-0.2,2.3-0.3,3.5-0.4
				c9.9-2.4,18.2-0.1,18.2-0.1c-1.8-0.4-11.6-1.8-21.6,2.2v0.6c1.5-0.5,3.1-0.9,4.6-1.1c2.2-0.3,4.3-0.2,6.1,0.3
				c7.3-0.5,12.7,1.1,12.7,1.1c-2-0.3-12.7-1.8-23.3,3v0.5c2.9-1.4,6-2.2,8.6-2.4c2.7-0.1,5,0.2,6.8,1.3c4.2-0.1,7.4,0.5,9.2,0.9
				V1.2h-24.6V7.8z M126.4,9.5c-0.6-0.2-1.4-0.4-2.2-0.5c0.3-0.1,0.7-0.1,1-0.2c0.5,0.1,1.2,0.4,1.9,0.8L126.4,9.5z M132.2,12.7
				c-0.6-0.5-1.3-0.9-2.1-1.2c0.3,0,0.6-0.1,0.9-0.1c0.5,0.3,1.2,0.9,1.6,1.4L132.2,12.7z"/>
			<path fill="#005DAA" d="M117.8,15.9v1.5c4.3-2.1,8.7-3.1,12.6-3.4C126.9,13.4,122.4,14,117.8,15.9"/>
			<path fill="#005DAA" d="M117.8,19.4V20c0.3-0.2,0.6-0.3,0.9-0.5c2.2-1.2,4.4-2,6.6-2.5c2.1-0.5,4.1-0.7,6-0.5
				c3.5,0.3,6.1,1.9,7.3,4.5c0,0,0.9,2,1,3.8l-0.4-1.1c-0.1-0.5-0.3-1.1-0.5-1.6c-0.9-1.8-2.7-3-5.1-3.8c-2.2-0.7-5-0.7-8-0.1
				c-2.6,0.5-5.3,1.5-7.8,2.8v4.7h0.2c1.5-1.1,3.2-2,4.9-2.6c4.5-1.9,8.8-2.5,12.1-1.6c2.4,0.7,4,2.1,4.6,4.3h2.8V15
				C138.4,14.5,127.7,13.8,117.8,19.4 M136.7,17.7c-0.7-1.1-1.7-1.9-3-2.6c0.4,0,0.9-0.1,1.3-0.1c0.1,0.1,0.3,0.2,0.4,0.4
				c0,0.1,1.5,1.5,2,3L136.7,17.7z"/>
			<path fill="#005DAA" d="M134.5,23.2c-2.1-0.6-4.6-0.6-7.3-0.1c-2.4,0.4-5,1.3-7.4,2.7h18.7C137.6,24.5,136.2,23.7,134.5,23.2"/>
		</g>
	</g>
</g>
</svg>
